<svg xmlns="http://www.w3.org/2000/svg" xmlns:xlink="http://www.w3.org/1999/xlink" version="1.1" x="0px" y="0px" viewBox="0 0 100 125" style="enable-background:new 0 0 100 100;" xml:space="preserve"><g><path d="M97.988,27.235c-4.05-4.805-12.864-4.81-19.689-0.012c-5.562,3.911-8.084,9.804-6.637,14.453L37.5,61.508l-3.174-1.86   L0,86.564l1.004,1.237l74.289-41.419c4.521,2.935,11.822,2.352,17.667-1.758C99.784,39.826,102.035,32.041,97.988,27.235z    M34.142,67.125c-1.32,0-2.391-1.07-2.391-2.391s1.07-2.391,2.391-2.391s2.391,1.07,2.391,2.391S35.462,67.125,34.142,67.125z    M89.598,40.634c-3.694,2.599-8.466,2.595-10.658-0.006c-2.191-2.602-0.973-6.815,2.723-9.413   c3.693-2.598,8.465-2.595,10.656,0.007C94.51,33.822,93.292,38.037,89.598,40.634z M37.638,60.143l3.38-2.063l17.307-29.741   c4.648,1.447,10.541-1.075,14.452-6.637c4.798-6.825,4.794-15.64-0.012-19.688c-4.806-4.048-12.591-1.797-17.39,5.027   c-4.109,5.845-4.692,13.146-1.758,17.667L34.826,58.408L37.638,60.143z M59.366,10.402c2.597-3.694,6.812-4.913,9.413-2.721   c2.601,2.191,2.604,6.963,0.006,10.656c-2.598,3.695-6.812,4.914-9.413,2.722C56.771,18.868,56.768,14.097,59.366,10.402z    M25.018,76.003l12.78-7.138L13.436,100l-1.237-1.004L25.018,76.003z"/></g></svg>