<svg xmlns:dc="http://purl.org/dc/elements/1.1/" xmlns:cc="http://creativecommons.org/ns#" xmlns:rdf="http://www.w3.org/1999/02/22-rdf-syntax-ns#" xmlns:svg="http://www.w3.org/2000/svg" xmlns="http://www.w3.org/2000/svg" xmlns:sodipodi="http://sodipodi.sourceforge.net/DTD/sodipodi-0.dtd" xmlns:inkscape="http://www.inkscape.org/namespaces/inkscape" version="1.1" x="0px" y="0px" viewBox="0 0 100 125"><g transform="translate(0,-952.36218)"><g transform="translate(6.9941136,963.33285)"><path d="M 34.228346,0.03543307 56.374014,2.2322834 c 0.141733,0.035433 0.283465,0.070866 0.389764,0.1417323 L 82.16929,17.787401 c 0.248031,0.141733 0.425196,0.425197 0.496062,0.708662 l 3.330709,20.905511 c 0.03543,0.248032 -0.03543,0.496063 -0.177165,0.708661 l -15.484252,22.03937 c -0.07087,0.106299 -0.177165,0.212599 -0.318898,0.283465 L 45.70866,76.74803 c -0.106299,0.03543 -0.248031,0.106299 -0.35433,0.106299 l -8.858268,1.169292 c -0.248031,0.03543 -0.496063,-0.03543 -0.673228,-0.177166 L 9.2480313,59.20866 C 9.106299,59.102361 8.9999998,58.996062 8.9291337,58.85433 L 0.10629921,42.200787 C 0,41.952755 -0.03543307,41.669291 0.07086614,41.385826 L 11.125984,12.791338 c 0.07087,-0.212598 0.248031,-0.389763 0.425197,-0.531496 L 33.69685,0.14173228 C 33.838582,0.07086614 34.05118,0 34.228346,0.03543307 z M 33.980314,2.2322834 13.216535,13.641732 19.559055,38.728346 35.43307,48.224409 50.20866,44.007873 64.381888,29.870078 z M 11.728346,16.759842 2.0905511,41.704724 9.7795273,56.125983 17.681102,39.437007 z m 69.165353,3.437008 -13.85433,10.133858 2.728346,29.19685 14.173228,-20.19685 z M 65.161416,31.85433 51.944881,45.106298 47.338582,73.452755 67.925195,61.370078 z m -45.956692,9 -8.149606,17.185039 23.846456,16.724409 -0.885827,-25.015747 z m 30.507873,5.385827 -13.677165,3.897637 0.92126,25.830709 c 2.728346,-0.46063 8.220472,-1.240158 8.220472,-1.240158 z" style="" fill="#000000" fill-opacity="1" fill-rule="nonzero" stroke="none"/></g></g></svg>