<svg xmlns:dc="http://purl.org/dc/elements/1.1/" xmlns:cc="http://creativecommons.org/ns#" xmlns:rdf="http://www.w3.org/1999/02/22-rdf-syntax-ns#" xmlns:svg="http://www.w3.org/2000/svg" xmlns="http://www.w3.org/2000/svg" xmlns:sodipodi="http://sodipodi.sourceforge.net/DTD/sodipodi-0.dtd" xmlns:inkscape="http://www.inkscape.org/namespaces/inkscape" version="1.1" x="0px" y="0px" viewBox="0 0 100 125"><g transform="translate(0,-952.36218)"><path style="font-size:medium;font-style:normal;font-variant:normal;font-weight:normal;font-stretch:normal;text-indent:0;text-align:start;text-decoration:none;line-height:normal;letter-spacing:normal;word-spacing:normal;text-transform:none;direction:ltr;block-progression:tb;writing-mode:lr-tb;text-anchor:start;baseline-shift:baseline;opacity:1;color:#000000;fill:#000000;fill-opacity:1;stroke:none;stroke-width:6;marker:none;visibility:visible;display:inline;overflow:visible;enable-background:accumulate;font-family:Sans;-inkscape-font-specification:Sans" d="M 19.6875 5 A 3.0003 3.0003 0 0 0 17 8 L 17 92 A 3.0003 3.0003 0 0 0 20 95 L 80 95 A 3.0003 3.0003 0 0 0 83 92 L 83 24.6875 A 3.0003 3.0003 0 0 0 82.125 22.5625 L 65.375 5.875 A 3.0003 3.0003 0 0 0 63.28125 5 L 20 5 A 3.0003 3.0003 0 0 0 19.6875 5 z M 23 11 L 60 11 L 60 25 A 3.0003 3.0003 0 0 0 63 28 L 77 28 L 77 89 L 23 89 L 23 11 z M 66 14.96875 L 73.0625 22 L 66 22 L 66 14.96875 z M 31.6875 41 A 3.0040663 3.0040663 0 1 0 32 47 L 52 47 A 3.0003 3.0003 0 1 0 52 41 L 32 41 A 3.0003 3.0003 0 0 0 31.6875 41 z M 31.6875 55 A 3.0040663 3.0040663 0 1 0 32 61 L 68 61 A 3.0003 3.0003 0 1 0 68 55 L 32 55 A 3.0003 3.0003 0 0 0 31.6875 55 z M 31.6875 69 A 3.0040663 3.0040663 0 1 0 32 75 L 68 75 A 3.0003 3.0003 0 1 0 68 69 L 32 69 A 3.0003 3.0003 0 0 0 31.6875 69 z " transform="translate(0,952.36218)"/></g></svg>